<mxfile host="app.diagrams.net" modified="2024-01-18T04:41:07.337Z" agent="Mozilla/5.0 (Windows NT 10.0; Win64; x64) AppleWebKit/537.36 (KHTML, like Gecko) Chrome/120.0.0.0 Safari/537.36" etag="GMU_cTi-BK8dYU2ykpGY" version="22.1.20" type="device">
  <diagram id="C5RBs43oDa-KdzZeNtuy" name="Page-1">
    <mxGraphModel dx="2261" dy="818" grid="1" gridSize="10" guides="1" tooltips="1" connect="1" arrows="1" fold="1" page="1" pageScale="1" pageWidth="827" pageHeight="1169" math="0" shadow="0">
      <root>
        <mxCell id="WIyWlLk6GJQsqaUBKTNV-0" />
        <mxCell id="WIyWlLk6GJQsqaUBKTNV-1" parent="WIyWlLk6GJQsqaUBKTNV-0" />
        <mxCell id="QELZMfJQ2GY_vj6Gipde-6" value="" style="rounded=0;whiteSpace=wrap;html=1;labelBackgroundColor=#f5f5f5;" vertex="1" parent="WIyWlLk6GJQsqaUBKTNV-1">
          <mxGeometry x="-100" y="100" width="1250" height="800" as="geometry" />
        </mxCell>
        <mxCell id="AgW9tGW2nO9UK1OFy2Hx-110" value="" style="rounded=0;whiteSpace=wrap;html=1;fillColor=#f5f5f5;strokeColor=none;fontColor=#333333;labelBackgroundColor=#f5f5f5;" parent="WIyWlLk6GJQsqaUBKTNV-1" vertex="1">
          <mxGeometry x="-80" y="170" width="710" height="500" as="geometry" />
        </mxCell>
        <mxCell id="AgW9tGW2nO9UK1OFy2Hx-107" value="" style="rounded=0;whiteSpace=wrap;html=1;fillColor=#f8cecc;strokeColor=none;" parent="WIyWlLk6GJQsqaUBKTNV-1" vertex="1">
          <mxGeometry x="-80" y="670" width="710" height="190" as="geometry" />
        </mxCell>
        <mxCell id="AgW9tGW2nO9UK1OFy2Hx-106" value="" style="rounded=0;whiteSpace=wrap;html=1;fillColor=#dae8fc;strokeColor=none;labelBackgroundColor=#dae8fc;" parent="WIyWlLk6GJQsqaUBKTNV-1" vertex="1">
          <mxGeometry x="110" y="410" width="520" height="260" as="geometry" />
        </mxCell>
        <mxCell id="AgW9tGW2nO9UK1OFy2Hx-105" value="" style="rounded=0;whiteSpace=wrap;html=1;fillColor=#ffe6cc;strokeColor=none;" parent="WIyWlLk6GJQsqaUBKTNV-1" vertex="1">
          <mxGeometry x="630" y="250" width="470" height="610" as="geometry" />
        </mxCell>
        <mxCell id="WIyWlLk6GJQsqaUBKTNV-5" value="No" style="edgeStyle=orthogonalEdgeStyle;rounded=0;html=1;jettySize=auto;orthogonalLoop=1;fontSize=11;endArrow=block;endFill=0;endSize=8;strokeWidth=1;shadow=0;labelBackgroundColor=none;" parent="WIyWlLk6GJQsqaUBKTNV-1" source="WIyWlLk6GJQsqaUBKTNV-6" target="WIyWlLk6GJQsqaUBKTNV-7" edge="1">
          <mxGeometry x="0.0087" y="10" relative="1" as="geometry">
            <mxPoint as="offset" />
          </mxGeometry>
        </mxCell>
        <mxCell id="AgW9tGW2nO9UK1OFy2Hx-85" style="edgeStyle=orthogonalEdgeStyle;rounded=0;orthogonalLoop=1;jettySize=auto;html=1;" parent="WIyWlLk6GJQsqaUBKTNV-1" source="WIyWlLk6GJQsqaUBKTNV-6" target="AgW9tGW2nO9UK1OFy2Hx-9" edge="1">
          <mxGeometry relative="1" as="geometry" />
        </mxCell>
        <mxCell id="WIyWlLk6GJQsqaUBKTNV-6" value="is the max &lt;br&gt;`corePoolSize` reached?" style="rhombus;whiteSpace=wrap;html=1;shadow=0;fontFamily=Helvetica;fontSize=12;align=center;strokeWidth=1;spacing=6;spacingTop=-4;" parent="WIyWlLk6GJQsqaUBKTNV-1" vertex="1">
          <mxGeometry x="172.5" y="440" width="210" height="80" as="geometry" />
        </mxCell>
        <mxCell id="AgW9tGW2nO9UK1OFy2Hx-68" style="edgeStyle=orthogonalEdgeStyle;rounded=0;orthogonalLoop=1;jettySize=auto;html=1;entryX=0;entryY=0.5;entryDx=0;entryDy=0;" parent="WIyWlLk6GJQsqaUBKTNV-1" source="WIyWlLk6GJQsqaUBKTNV-7" edge="1">
          <mxGeometry relative="1" as="geometry">
            <Array as="points">
              <mxPoint x="610" y="480" />
              <mxPoint x="610" y="330" />
            </Array>
            <mxPoint x="727.5" y="330" as="targetPoint" />
          </mxGeometry>
        </mxCell>
        <mxCell id="WIyWlLk6GJQsqaUBKTNV-7" value="Allocate Core Thread" style="rounded=0;whiteSpace=wrap;html=1;fontSize=12;glass=0;strokeWidth=1;shadow=0;" parent="WIyWlLk6GJQsqaUBKTNV-1" vertex="1">
          <mxGeometry x="440" y="460" width="120" height="40" as="geometry" />
        </mxCell>
        <mxCell id="AgW9tGW2nO9UK1OFy2Hx-80" style="edgeStyle=orthogonalEdgeStyle;rounded=0;orthogonalLoop=1;jettySize=auto;html=1;" parent="WIyWlLk6GJQsqaUBKTNV-1" source="WIyWlLk6GJQsqaUBKTNV-10" target="AgW9tGW2nO9UK1OFy2Hx-8" edge="1">
          <mxGeometry relative="1" as="geometry" />
        </mxCell>
        <mxCell id="AgW9tGW2nO9UK1OFy2Hx-90" value="No" style="edgeLabel;html=1;align=center;verticalAlign=middle;resizable=0;points=[];labelBackgroundColor=#F5F5F5;" parent="AgW9tGW2nO9UK1OFy2Hx-80" vertex="1" connectable="0">
          <mxGeometry x="-0.15" y="3" relative="1" as="geometry">
            <mxPoint x="20" as="offset" />
          </mxGeometry>
        </mxCell>
        <mxCell id="AgW9tGW2nO9UK1OFy2Hx-93" style="edgeStyle=orthogonalEdgeStyle;rounded=0;orthogonalLoop=1;jettySize=auto;html=1;entryX=0;entryY=0.5;entryDx=0;entryDy=0;exitX=0;exitY=0.5;exitDx=0;exitDy=0;" parent="WIyWlLk6GJQsqaUBKTNV-1" source="WIyWlLk6GJQsqaUBKTNV-10" target="AgW9tGW2nO9UK1OFy2Hx-21" edge="1">
          <mxGeometry relative="1" as="geometry">
            <Array as="points">
              <mxPoint x="-50" y="230" />
              <mxPoint x="-50" y="710" />
            </Array>
          </mxGeometry>
        </mxCell>
        <mxCell id="AgW9tGW2nO9UK1OFy2Hx-97" value="Yes" style="edgeLabel;html=1;align=center;verticalAlign=middle;resizable=0;points=[];labelBackgroundColor=#F5F5F5;" parent="AgW9tGW2nO9UK1OFy2Hx-93" vertex="1" connectable="0">
          <mxGeometry x="-0.8915" relative="1" as="geometry">
            <mxPoint x="10" as="offset" />
          </mxGeometry>
        </mxCell>
        <mxCell id="WIyWlLk6GJQsqaUBKTNV-10" value="is the max `workQueue` &lt;br&gt;reached?" style="rhombus;whiteSpace=wrap;html=1;shadow=0;fontFamily=Helvetica;fontSize=12;align=center;strokeWidth=1;spacing=6;spacingTop=-4;" parent="WIyWlLk6GJQsqaUBKTNV-1" vertex="1">
          <mxGeometry x="-30" y="190" width="215" height="80" as="geometry" />
        </mxCell>
        <mxCell id="AgW9tGW2nO9UK1OFy2Hx-82" style="edgeStyle=orthogonalEdgeStyle;rounded=0;orthogonalLoop=1;jettySize=auto;html=1;" parent="WIyWlLk6GJQsqaUBKTNV-1" source="AgW9tGW2nO9UK1OFy2Hx-8" target="AgW9tGW2nO9UK1OFy2Hx-78" edge="1">
          <mxGeometry relative="1" as="geometry" />
        </mxCell>
        <mxCell id="AgW9tGW2nO9UK1OFy2Hx-8" value="Queue request in workQueue" style="rounded=0;whiteSpace=wrap;html=1;fontSize=12;glass=0;strokeWidth=1;shadow=0;" parent="WIyWlLk6GJQsqaUBKTNV-1" vertex="1">
          <mxGeometry x="17.5" y="310" width="120" height="40" as="geometry" />
        </mxCell>
        <mxCell id="AgW9tGW2nO9UK1OFy2Hx-18" style="edgeStyle=orthogonalEdgeStyle;rounded=0;orthogonalLoop=1;jettySize=auto;html=1;endArrow=block;endFill=0;" parent="WIyWlLk6GJQsqaUBKTNV-1" source="AgW9tGW2nO9UK1OFy2Hx-9" target="AgW9tGW2nO9UK1OFy2Hx-17" edge="1">
          <mxGeometry relative="1" as="geometry" />
        </mxCell>
        <mxCell id="AgW9tGW2nO9UK1OFy2Hx-19" value="No" style="edgeLabel;html=1;align=center;verticalAlign=middle;resizable=0;points=[];labelBackgroundColor=#dae8fc;" parent="AgW9tGW2nO9UK1OFy2Hx-18" vertex="1" connectable="0">
          <mxGeometry x="0.1652" y="-2" relative="1" as="geometry">
            <mxPoint x="-3" y="-17" as="offset" />
          </mxGeometry>
        </mxCell>
        <mxCell id="AgW9tGW2nO9UK1OFy2Hx-22" style="edgeStyle=orthogonalEdgeStyle;rounded=0;orthogonalLoop=1;jettySize=auto;html=1;" parent="WIyWlLk6GJQsqaUBKTNV-1" source="AgW9tGW2nO9UK1OFy2Hx-9" target="AgW9tGW2nO9UK1OFy2Hx-21" edge="1">
          <mxGeometry relative="1" as="geometry" />
        </mxCell>
        <mxCell id="AgW9tGW2nO9UK1OFy2Hx-23" value="Yes" style="edgeLabel;html=1;align=center;verticalAlign=middle;resizable=0;points=[];labelBackgroundColor=#dae8fc;" parent="AgW9tGW2nO9UK1OFy2Hx-22" vertex="1" connectable="0">
          <mxGeometry x="-0.05" y="1" relative="1" as="geometry">
            <mxPoint x="12" y="-4" as="offset" />
          </mxGeometry>
        </mxCell>
        <mxCell id="AgW9tGW2nO9UK1OFy2Hx-9" value="is the max &lt;br&gt;`maximumPoolSize` reached?" style="rhombus;whiteSpace=wrap;html=1;shadow=0;fontFamily=Helvetica;fontSize=12;align=center;strokeWidth=1;spacing=6;spacingTop=-4;" parent="WIyWlLk6GJQsqaUBKTNV-1" vertex="1">
          <mxGeometry x="170" y="560" width="215" height="80" as="geometry" />
        </mxCell>
        <mxCell id="AgW9tGW2nO9UK1OFy2Hx-47" style="edgeStyle=orthogonalEdgeStyle;rounded=0;orthogonalLoop=1;jettySize=auto;html=1;" parent="WIyWlLk6GJQsqaUBKTNV-1" source="AgW9tGW2nO9UK1OFy2Hx-12" target="AgW9tGW2nO9UK1OFy2Hx-45" edge="1">
          <mxGeometry relative="1" as="geometry" />
        </mxCell>
        <mxCell id="AgW9tGW2nO9UK1OFy2Hx-49" value="Yes" style="edgeLabel;html=1;align=center;verticalAlign=middle;resizable=0;points=[];labelBackgroundColor=#ffe6cc;" parent="AgW9tGW2nO9UK1OFy2Hx-47" vertex="1" connectable="0">
          <mxGeometry x="-0.2" relative="1" as="geometry">
            <mxPoint x="20" as="offset" />
          </mxGeometry>
        </mxCell>
        <mxCell id="AgW9tGW2nO9UK1OFy2Hx-57" style="edgeStyle=orthogonalEdgeStyle;rounded=0;orthogonalLoop=1;jettySize=auto;html=1;" parent="WIyWlLk6GJQsqaUBKTNV-1" source="AgW9tGW2nO9UK1OFy2Hx-12" target="AgW9tGW2nO9UK1OFy2Hx-53" edge="1">
          <mxGeometry relative="1" as="geometry" />
        </mxCell>
        <mxCell id="AgW9tGW2nO9UK1OFy2Hx-58" value="No" style="edgeLabel;html=1;align=center;verticalAlign=middle;resizable=0;points=[];labelBackgroundColor=#ffe6cc;" parent="AgW9tGW2nO9UK1OFy2Hx-57" vertex="1" connectable="0">
          <mxGeometry x="-0.1429" y="-2" relative="1" as="geometry">
            <mxPoint x="1" y="-13" as="offset" />
          </mxGeometry>
        </mxCell>
        <mxCell id="AgW9tGW2nO9UK1OFy2Hx-12" value="is current thread free?" style="rhombus;whiteSpace=wrap;html=1;shadow=0;fontFamily=Helvetica;fontSize=12;align=center;strokeWidth=1;spacing=6;spacingTop=-4;" parent="WIyWlLk6GJQsqaUBKTNV-1" vertex="1">
          <mxGeometry x="680" y="410" width="215" height="80" as="geometry" />
        </mxCell>
        <mxCell id="AgW9tGW2nO9UK1OFy2Hx-37" style="edgeStyle=orthogonalEdgeStyle;rounded=0;orthogonalLoop=1;jettySize=auto;html=1;entryX=0;entryY=0.5;entryDx=0;entryDy=0;" parent="WIyWlLk6GJQsqaUBKTNV-1" source="AgW9tGW2nO9UK1OFy2Hx-17" edge="1">
          <mxGeometry relative="1" as="geometry">
            <Array as="points">
              <mxPoint x="610" y="600" />
              <mxPoint x="610" y="330" />
            </Array>
            <mxPoint x="727.5" y="330" as="targetPoint" />
          </mxGeometry>
        </mxCell>
        <mxCell id="AgW9tGW2nO9UK1OFy2Hx-17" value="Allocate Thread" style="rounded=0;whiteSpace=wrap;html=1;fontSize=12;glass=0;strokeWidth=1;shadow=0;" parent="WIyWlLk6GJQsqaUBKTNV-1" vertex="1">
          <mxGeometry x="440" y="580" width="120" height="40" as="geometry" />
        </mxCell>
        <mxCell id="AgW9tGW2nO9UK1OFy2Hx-28" style="edgeStyle=orthogonalEdgeStyle;rounded=0;orthogonalLoop=1;jettySize=auto;html=1;exitX=0.5;exitY=1;exitDx=0;exitDy=0;" parent="WIyWlLk6GJQsqaUBKTNV-1" source="AgW9tGW2nO9UK1OFy2Hx-21" target="QELZMfJQ2GY_vj6Gipde-5" edge="1">
          <mxGeometry relative="1" as="geometry">
            <mxPoint x="277.5" y="770" as="targetPoint" />
          </mxGeometry>
        </mxCell>
        <mxCell id="AgW9tGW2nO9UK1OFy2Hx-94" style="edgeStyle=orthogonalEdgeStyle;rounded=0;orthogonalLoop=1;jettySize=auto;html=1;dashed=1;dashPattern=8 8;" parent="WIyWlLk6GJQsqaUBKTNV-1" source="AgW9tGW2nO9UK1OFy2Hx-21" target="AgW9tGW2nO9UK1OFy2Hx-33" edge="1">
          <mxGeometry relative="1" as="geometry" />
        </mxCell>
        <mxCell id="AgW9tGW2nO9UK1OFy2Hx-21" value="Call `RejectedExecutionHandler`" style="rounded=1;whiteSpace=wrap;html=1;fontSize=12;glass=0;strokeWidth=1;shadow=0;" parent="WIyWlLk6GJQsqaUBKTNV-1" vertex="1">
          <mxGeometry x="197.5" y="690" width="160" height="40" as="geometry" />
        </mxCell>
        <mxCell id="AgW9tGW2nO9UK1OFy2Hx-30" style="edgeStyle=orthogonalEdgeStyle;rounded=0;orthogonalLoop=1;jettySize=auto;html=1;entryX=0;entryY=0.5;entryDx=0;entryDy=0;" parent="WIyWlLk6GJQsqaUBKTNV-1" source="QELZMfJQ2GY_vj6Gipde-5" target="AgW9tGW2nO9UK1OFy2Hx-25" edge="1">
          <mxGeometry relative="1" as="geometry">
            <mxPoint x="385" y="810" as="sourcePoint" />
          </mxGeometry>
        </mxCell>
        <mxCell id="AgW9tGW2nO9UK1OFy2Hx-32" value="No" style="edgeLabel;html=1;align=center;verticalAlign=middle;resizable=0;points=[];labelBackgroundColor=#f8cecc;" parent="AgW9tGW2nO9UK1OFy2Hx-30" vertex="1" connectable="0">
          <mxGeometry x="-0.0182" relative="1" as="geometry">
            <mxPoint x="2" y="-10" as="offset" />
          </mxGeometry>
        </mxCell>
        <mxCell id="AgW9tGW2nO9UK1OFy2Hx-95" style="edgeStyle=orthogonalEdgeStyle;rounded=0;orthogonalLoop=1;jettySize=auto;html=1;entryX=0.5;entryY=1;entryDx=0;entryDy=0;" parent="WIyWlLk6GJQsqaUBKTNV-1" source="QELZMfJQ2GY_vj6Gipde-5" target="AgW9tGW2nO9UK1OFy2Hx-8" edge="1">
          <mxGeometry relative="1" as="geometry">
            <mxPoint x="170" y="800" as="sourcePoint" />
          </mxGeometry>
        </mxCell>
        <mxCell id="AgW9tGW2nO9UK1OFy2Hx-96" value="Yes" style="edgeLabel;html=1;align=center;verticalAlign=middle;resizable=0;points=[];labelBackgroundColor=#f8cecc;" parent="AgW9tGW2nO9UK1OFy2Hx-95" vertex="1" connectable="0">
          <mxGeometry x="-0.882" y="-1" relative="1" as="geometry">
            <mxPoint y="-9" as="offset" />
          </mxGeometry>
        </mxCell>
        <mxCell id="AgW9tGW2nO9UK1OFy2Hx-25" value="Reject current new request" style="rounded=1;whiteSpace=wrap;html=1;fontSize=12;glass=0;strokeWidth=1;shadow=0;" parent="WIyWlLk6GJQsqaUBKTNV-1" vertex="1">
          <mxGeometry x="440" y="790" width="120" height="40" as="geometry" />
        </mxCell>
        <mxCell id="AgW9tGW2nO9UK1OFy2Hx-33" value="Any other action" style="rounded=1;whiteSpace=wrap;html=1;fontSize=12;glass=0;strokeWidth=1;shadow=0;" parent="WIyWlLk6GJQsqaUBKTNV-1" vertex="1">
          <mxGeometry x="440" y="690" width="120" height="40" as="geometry" />
        </mxCell>
        <mxCell id="AgW9tGW2nO9UK1OFy2Hx-38" style="edgeStyle=orthogonalEdgeStyle;rounded=0;orthogonalLoop=1;jettySize=auto;html=1;entryX=0.5;entryY=0;entryDx=0;entryDy=0;" parent="WIyWlLk6GJQsqaUBKTNV-1" source="QELZMfJQ2GY_vj6Gipde-4" target="AgW9tGW2nO9UK1OFy2Hx-12" edge="1">
          <mxGeometry relative="1" as="geometry">
            <mxPoint x="787.5" y="370" as="sourcePoint" />
          </mxGeometry>
        </mxCell>
        <mxCell id="AgW9tGW2nO9UK1OFy2Hx-103" style="edgeStyle=orthogonalEdgeStyle;rounded=0;orthogonalLoop=1;jettySize=auto;html=1;" parent="WIyWlLk6GJQsqaUBKTNV-1" source="AgW9tGW2nO9UK1OFy2Hx-43" edge="1">
          <mxGeometry relative="1" as="geometry">
            <Array as="points">
              <mxPoint x="1080" y="570" />
              <mxPoint x="1080" y="330" />
            </Array>
            <mxPoint x="847.5" y="330" as="targetPoint" />
          </mxGeometry>
        </mxCell>
        <mxCell id="AgW9tGW2nO9UK1OFy2Hx-43" value="Pick up a request from queue and start progressing" style="rounded=0;whiteSpace=wrap;html=1;fontSize=12;glass=0;strokeWidth=1;shadow=0;" parent="WIyWlLk6GJQsqaUBKTNV-1" vertex="1">
          <mxGeometry x="947.5" y="540" width="120" height="60" as="geometry" />
        </mxCell>
        <mxCell id="AgW9tGW2nO9UK1OFy2Hx-46" style="edgeStyle=orthogonalEdgeStyle;rounded=0;orthogonalLoop=1;jettySize=auto;html=1;" parent="WIyWlLk6GJQsqaUBKTNV-1" source="AgW9tGW2nO9UK1OFy2Hx-45" target="AgW9tGW2nO9UK1OFy2Hx-43" edge="1">
          <mxGeometry relative="1" as="geometry" />
        </mxCell>
        <mxCell id="AgW9tGW2nO9UK1OFy2Hx-59" value="No" style="edgeLabel;html=1;align=center;verticalAlign=middle;resizable=0;points=[];labelBackgroundColor=#ffe6cc;" parent="AgW9tGW2nO9UK1OFy2Hx-46" vertex="1" connectable="0">
          <mxGeometry x="-0.056" y="-2" relative="1" as="geometry">
            <mxPoint y="-12" as="offset" />
          </mxGeometry>
        </mxCell>
        <mxCell id="AgW9tGW2nO9UK1OFy2Hx-60" style="edgeStyle=orthogonalEdgeStyle;rounded=0;orthogonalLoop=1;jettySize=auto;html=1;exitX=0.5;exitY=1;exitDx=0;exitDy=0;" parent="WIyWlLk6GJQsqaUBKTNV-1" source="AgW9tGW2nO9UK1OFy2Hx-45" target="AgW9tGW2nO9UK1OFy2Hx-56" edge="1">
          <mxGeometry relative="1" as="geometry" />
        </mxCell>
        <mxCell id="AgW9tGW2nO9UK1OFy2Hx-61" value="Yes" style="edgeLabel;html=1;align=center;verticalAlign=middle;resizable=0;points=[];labelBackgroundColor=#ffe6cc;" parent="AgW9tGW2nO9UK1OFy2Hx-60" vertex="1" connectable="0">
          <mxGeometry x="-0.2" y="2" relative="1" as="geometry">
            <mxPoint x="18" y="4" as="offset" />
          </mxGeometry>
        </mxCell>
        <mxCell id="AgW9tGW2nO9UK1OFy2Hx-45" value="is queue empty?" style="rhombus;whiteSpace=wrap;html=1;shadow=0;fontFamily=Helvetica;fontSize=12;align=center;strokeWidth=1;spacing=6;spacingTop=-4;" parent="WIyWlLk6GJQsqaUBKTNV-1" vertex="1">
          <mxGeometry x="680" y="530" width="215" height="80" as="geometry" />
        </mxCell>
        <mxCell id="AgW9tGW2nO9UK1OFy2Hx-102" style="edgeStyle=orthogonalEdgeStyle;rounded=0;orthogonalLoop=1;jettySize=auto;html=1;entryX=1;entryY=0.5;entryDx=0;entryDy=0;" parent="WIyWlLk6GJQsqaUBKTNV-1" source="AgW9tGW2nO9UK1OFy2Hx-53" edge="1">
          <mxGeometry relative="1" as="geometry">
            <Array as="points">
              <mxPoint x="1080" y="450" />
              <mxPoint x="1080" y="330" />
            </Array>
            <mxPoint x="847.5" y="330" as="targetPoint" />
          </mxGeometry>
        </mxCell>
        <mxCell id="AgW9tGW2nO9UK1OFy2Hx-53" value="Stay - keep progressing" style="rounded=0;whiteSpace=wrap;html=1;fontSize=12;glass=0;strokeWidth=1;shadow=0;" parent="WIyWlLk6GJQsqaUBKTNV-1" vertex="1">
          <mxGeometry x="947.5" y="430" width="120" height="40" as="geometry" />
        </mxCell>
        <mxCell id="AgW9tGW2nO9UK1OFy2Hx-66" style="edgeStyle=orthogonalEdgeStyle;rounded=0;orthogonalLoop=1;jettySize=auto;html=1;" parent="WIyWlLk6GJQsqaUBKTNV-1" source="AgW9tGW2nO9UK1OFy2Hx-56" target="AgW9tGW2nO9UK1OFy2Hx-62" edge="1">
          <mxGeometry relative="1" as="geometry" />
        </mxCell>
        <mxCell id="AgW9tGW2nO9UK1OFy2Hx-67" value="Yes" style="edgeLabel;html=1;align=center;verticalAlign=middle;resizable=0;points=[];labelBackgroundColor=#ffe6cc;" parent="AgW9tGW2nO9UK1OFy2Hx-66" vertex="1" connectable="0">
          <mxGeometry x="-0.24" y="1" relative="1" as="geometry">
            <mxPoint x="19" as="offset" />
          </mxGeometry>
        </mxCell>
        <mxCell id="AgW9tGW2nO9UK1OFy2Hx-100" style="edgeStyle=orthogonalEdgeStyle;rounded=0;orthogonalLoop=1;jettySize=auto;html=1;entryX=0;entryY=0.5;entryDx=0;entryDy=0;" parent="WIyWlLk6GJQsqaUBKTNV-1" source="AgW9tGW2nO9UK1OFy2Hx-56" target="AgW9tGW2nO9UK1OFy2Hx-99" edge="1">
          <mxGeometry relative="1" as="geometry" />
        </mxCell>
        <mxCell id="AgW9tGW2nO9UK1OFy2Hx-101" value="No" style="edgeLabel;html=1;align=center;verticalAlign=middle;resizable=0;points=[];labelBackgroundColor=#ffe6cc;" parent="AgW9tGW2nO9UK1OFy2Hx-100" vertex="1" connectable="0">
          <mxGeometry x="-0.2" y="2" relative="1" as="geometry">
            <mxPoint y="-8" as="offset" />
          </mxGeometry>
        </mxCell>
        <mxCell id="AgW9tGW2nO9UK1OFy2Hx-56" value="is current thread reache the `keepAliceTime`?" style="rhombus;whiteSpace=wrap;html=1;shadow=0;fontFamily=Helvetica;fontSize=12;align=center;strokeWidth=1;spacing=6;spacingTop=-4;" parent="WIyWlLk6GJQsqaUBKTNV-1" vertex="1">
          <mxGeometry x="680" y="650" width="215" height="80" as="geometry" />
        </mxCell>
        <mxCell id="AgW9tGW2nO9UK1OFy2Hx-62" value="relocate (delect) thread" style="rounded=1;whiteSpace=wrap;html=1;fontSize=12;glass=0;strokeWidth=1;shadow=0;" parent="WIyWlLk6GJQsqaUBKTNV-1" vertex="1">
          <mxGeometry x="727.5" y="780" width="120" height="40" as="geometry" />
        </mxCell>
        <mxCell id="AgW9tGW2nO9UK1OFy2Hx-79" style="edgeStyle=orthogonalEdgeStyle;rounded=0;orthogonalLoop=1;jettySize=auto;html=1;" parent="WIyWlLk6GJQsqaUBKTNV-1" source="AgW9tGW2nO9UK1OFy2Hx-71" target="WIyWlLk6GJQsqaUBKTNV-10" edge="1">
          <mxGeometry relative="1" as="geometry" />
        </mxCell>
        <mxCell id="AgW9tGW2nO9UK1OFy2Hx-71" value="New request come" style="rounded=1;whiteSpace=wrap;html=1;fontSize=12;glass=0;strokeWidth=1;shadow=0;" parent="WIyWlLk6GJQsqaUBKTNV-1" vertex="1">
          <mxGeometry x="17.5" y="120" width="120" height="40" as="geometry" />
        </mxCell>
        <mxCell id="AgW9tGW2nO9UK1OFy2Hx-84" style="edgeStyle=orthogonalEdgeStyle;rounded=0;orthogonalLoop=1;jettySize=auto;html=1;" parent="WIyWlLk6GJQsqaUBKTNV-1" source="AgW9tGW2nO9UK1OFy2Hx-78" target="WIyWlLk6GJQsqaUBKTNV-6" edge="1">
          <mxGeometry relative="1" as="geometry" />
        </mxCell>
        <mxCell id="AgW9tGW2nO9UK1OFy2Hx-91" value="No" style="edgeLabel;html=1;align=center;verticalAlign=middle;resizable=0;points=[];labelBackgroundColor=#F5F5F5;" parent="AgW9tGW2nO9UK1OFy2Hx-84" vertex="1" connectable="0">
          <mxGeometry x="-0.15" y="3" relative="1" as="geometry">
            <mxPoint x="10" as="offset" />
          </mxGeometry>
        </mxCell>
        <mxCell id="AgW9tGW2nO9UK1OFy2Hx-87" style="edgeStyle=orthogonalEdgeStyle;rounded=0;orthogonalLoop=1;jettySize=auto;html=1;" parent="WIyWlLk6GJQsqaUBKTNV-1" source="AgW9tGW2nO9UK1OFy2Hx-78" target="QELZMfJQ2GY_vj6Gipde-4" edge="1">
          <mxGeometry relative="1" as="geometry">
            <mxPoint x="727.5" y="330" as="targetPoint" />
          </mxGeometry>
        </mxCell>
        <mxCell id="AgW9tGW2nO9UK1OFy2Hx-89" value="Yes" style="edgeLabel;html=1;align=center;verticalAlign=middle;resizable=0;points=[];labelBackgroundColor=#f5f5f5;" parent="AgW9tGW2nO9UK1OFy2Hx-87" vertex="1" connectable="0">
          <mxGeometry x="-0.784" relative="1" as="geometry">
            <mxPoint x="-8" y="-10" as="offset" />
          </mxGeometry>
        </mxCell>
        <mxCell id="AgW9tGW2nO9UK1OFy2Hx-78" value="is any available thread?" style="rhombus;whiteSpace=wrap;html=1;shadow=0;fontFamily=Helvetica;fontSize=12;align=center;strokeWidth=1;spacing=6;spacingTop=-4;" parent="WIyWlLk6GJQsqaUBKTNV-1" vertex="1">
          <mxGeometry x="172.5" y="290" width="210" height="80" as="geometry" />
        </mxCell>
        <mxCell id="AgW9tGW2nO9UK1OFy2Hx-104" style="edgeStyle=orthogonalEdgeStyle;rounded=0;orthogonalLoop=1;jettySize=auto;html=1;" parent="WIyWlLk6GJQsqaUBKTNV-1" source="AgW9tGW2nO9UK1OFy2Hx-99" target="QELZMfJQ2GY_vj6Gipde-4" edge="1">
          <mxGeometry relative="1" as="geometry">
            <Array as="points">
              <mxPoint x="1080" y="690" />
              <mxPoint x="1080" y="330" />
            </Array>
            <mxPoint x="847.5" y="330" as="targetPoint" />
          </mxGeometry>
        </mxCell>
        <mxCell id="AgW9tGW2nO9UK1OFy2Hx-99" value="Stay" style="rounded=0;whiteSpace=wrap;html=1;fontSize=12;glass=0;strokeWidth=1;shadow=0;" parent="WIyWlLk6GJQsqaUBKTNV-1" vertex="1">
          <mxGeometry x="947.5" y="670" width="120" height="40" as="geometry" />
        </mxCell>
        <mxCell id="QELZMfJQ2GY_vj6Gipde-4" value="New request come" style="rounded=1;whiteSpace=wrap;html=1;fontSize=12;glass=0;strokeWidth=1;shadow=0;" vertex="1" parent="WIyWlLk6GJQsqaUBKTNV-1">
          <mxGeometry x="727.5" y="310" width="120" height="40" as="geometry" />
        </mxCell>
        <mxCell id="QELZMfJQ2GY_vj6Gipde-5" value="is `RejectedExecutionHandler` &lt;br&gt;resulting to keep the current&amp;nbsp;&lt;br&gt;new reuqest?" style="shape=hexagon;perimeter=hexagonPerimeter2;whiteSpace=wrap;html=1;fixedSize=1;size=53.75;" vertex="1" parent="WIyWlLk6GJQsqaUBKTNV-1">
          <mxGeometry x="158.13" y="780" width="238.75" height="60" as="geometry" />
        </mxCell>
      </root>
    </mxGraphModel>
  </diagram>
</mxfile>
